IKResults																		
version=1																		
nRows=39																		
nColumns=19																		
inDegrees=yes																		
																		
"Units are S.I. units (second, meters, Newtons, ...)"																		
"If the header above contains a line with 'inDegrees', this indicates whether rotational values are in degrees (yes) or radians (no)."																		
																		
endheader																		
time	pelvis_tilt	pelvis_list	pelvis_rotation	pelvis_tx	pelvis_ty	pelvis_tz	hip_flexion_r	hip_adduction_r	hip_rotation_r	knee_angle_r	knee_angle_r_beta	ankle_angle_r	hip_flexion_l	hip_adduction_l	hip_rotation_l	knee_angle_l	knee_angle_l_beta	ankle_angle_l
3.99	4.22125927	12.97099898	-179.8213315	0	0.82925028	-0.3650434	30.47476614	5.39703922	-25.40968399	16.95825315	0.29597735	4.95906766	19.21657522	-16.4668568	-7.44574474	0.12046106	0.00210244	10.91645824
4	4.6508085	12.91330927	-179.8213258	0	0.82800215	-0.36621091	30.81383019	5.83555317	-23.55006835	14.82833557	0.25880328	4.42378932	19.27341186	-16.55389923	-7.66049509	0.11695029	0.00204117	11.17087439
4.01	4.92919378	12.89675776	-179.8192479	0	0.82684784	-0.36736912	30.87172261	6.28105719	-21.67827168	12.73718806	0.22230587	3.98099235	19.14416985	-16.68420479	-7.88098293	0.11593809	0.0020235	11.50077664
4.02	5.26772293	12.81806272	-179.8163055	0	0.8255752	-0.36854223	30.94688501	6.59045945	-19.73167647	10.86935961	0.18970611	3.65409489	19.0752544	-16.69559519	-7.98801812	0.11473982	0.00200259	11.8352227
4.03	5.42969605	12.81272181	-179.8132331	0	0.82447703	-0.36971072	30.76702243	6.92136927	-17.81510078	9.16952585	0.16003842	3.19123511	18.78862734	-16.85134761	-8.25270878	0.11454609	0.00199921	12.1719433
4.04	5.81800955	12.65574243	-179.8103115	0	0.82303408	-0.37078987	30.94399993	6.94791947	-16.16441149	8.00422194	0.13970003	2.91919028	18.75702952	-16.72792218	-8.29117508	0.11435145	0.00199581	12.54451106
4.05	5.89425605	12.67601954	-179.8065641	0	0.82196767	-0.37197124	30.73860688	7.15266472	-14.69673676	6.985743	0.12192422	2.47294751	18.36587961	-16.9178776	-8.56139202	0.11463069	0.00200068	12.82809881
4.06	6.01604875	12.61574042	-179.802464	0	0.82084603	-0.37308053	30.72426954	7.18001389	-13.65207431	6.47961916	0.11309069	2.0547738	18.02177183	-16.96137434	-8.72298007	0.11466819	0.00200134	13.13236884
4.07	6.32789303	12.61361002	-179.7990959	0	0.81946475	-0.3742113	31.19863221	7.12107042	-13.52356696	6.72037954	0.11729275	1.65382562	17.91255433	-17.06417768	-8.83985986	0.11626056	0.00202913	13.37234309
4.08	6.31779425	12.51904149	-179.7944189	0	0.81862512	-0.37536878	31.03465025	7.10953927	-12.63329657	6.58241459	0.11488481	1.10349893	17.40352202	-17.05407076	-8.95711375	0.11596029	0.00202389	13.64564833
4.09	6.52894336	12.55702674	-179.7921882	0	0.81750465	-0.37656678	31.44212337	7.08228316	-12.76906997	7.21640805	0.12595008	0.56501479	17.17350865	-17.20372045	-9.03125434	0.11818009	0.00206263	13.78576261
4.1	6.58741769	12.50461548	-179.7869817	0	0.8166679	-0.37779209	31.65861967	6.98368389	-12.96657223	7.90926321	0.13804268	-0.13186812	16.74517833	-17.25060021	-9.12652946	0.11898564	0.00207669	13.97011224
4.11	6.62915345	12.49819883	-179.7824686	0	0.81593805	-0.37903429	31.9198785	6.9086386	-13.33668339	8.80730835	0.15371653	-0.85736106	16.3117217	-17.33836385	-9.16544458	0.11962238	0.0020878	14.04296926
4.12	6.7284393	12.48934048	-179.7793735	0	0.81520963	-0.38034599	32.31947415	6.79221189	-13.92999661	9.92550995	0.17323283	-1.54589207	15.93462809	-17.43296163	-9.20822024	0.12187679	0.00212715	14.08509304
4.13	6.64779103	12.55491058	-179.7746589	0	0.81484038	-0.3817797	32.46212464	6.79288611	-14.43282856	10.93570767	0.1908641	-2.40241835	15.36783955	-17.63701074	-9.25253312	0.1222468	0.00213361	13.9794503
4.14	6.6789248	12.56012273	-179.771068	0	0.81444034	-0.38319775	32.77940833	6.68790083	-15.06794563	12.10956982	0.21135186	-3.11982117	14.92133978	-17.74589687	-9.23423191	0.12380583	0.00216082	13.85321792
4.15	6.69327403	12.55247532	-179.7681453	0	0.81420901	-0.38469842	33.04655959	6.58943533	-15.60992893	13.24719642	0.23120719	-3.80548406	14.45891659	-17.84200991	-9.19134454	0.1254922	0.00219025	13.63281118
4.16	6.69410193	12.53274816	-179.7650829	0	0.81413734	-0.38625777	33.26438468	6.49498355	-16.07675099	14.34528871	0.25037252	-4.41272723	13.98107489	-17.92994191	-9.13938386	0.12713582	0.00221894	13.32601281
4.17	6.72584011	12.49147569	-179.7620529	0	0.81416758	-0.38787184	33.49900416	6.38038837	-16.51682136	15.44632087	0.26958916	-4.8543245	13.54787644	-17.9740938	-9.00883962	0.12920934	0.00225513	12.92021235
4.18	6.7724698	12.39888036	-179.7591491	0	0.81434927	-0.38954166	33.71184605	6.23258106	-16.86948898	16.50461871	0.28805994	-5.15717708	13.14022383	-17.93602741	-8.79248237	0.13083911	0.00228357	12.41969811
4.19	6.79538223	12.49721455	-179.7570097	0	0.81479624	-0.39138404	33.67835996	6.41101731	-16.80258833	17.1341377	0.29904712	-5.49626442	12.71244784	-18.12193359	-8.50323674	0.13414382	0.00234125	12.08531049
4.2	6.67715726	12.26550198	-179.7543931	0	0.81548098	-0.3930905	33.67872775	6.12140545	-17.26014408	18.21512991	0.31791399	-5.56772234	12.13060702	-18.01705763	-8.51568781	0.13464094	0.00234993	11.01688778
4.21	6.64459602	12.12470416	-179.7527524	0	0.81628233	-0.39490763	33.60758359	6.01870009	-17.38066781	18.99309534	0.33149205	-5.54586657	11.66550627	-17.96586651	-8.32610507	0.13724566	0.00239539	10.1214102
4.22	6.58287442	12.00128888	-179.7500899	0	0.81731194	-0.3967088	33.42470779	5.96226252	-17.44494293	19.6385853	0.34275797	-5.45370694	11.18805966	-17.91215404	-8.05718548	0.14004686	0.00244428	9.11680106
4.23	6.52569761	11.79824492	-179.7488523	0	0.81848931	-0.3985754	33.20526914	5.84036359	-17.48762837	20.27622368	0.35388686	-5.129074	10.73684433	-17.81182485	-7.87824664	0.14427941	0.00251815	7.92597975
4.24	6.44334958	11.59115729	-179.7479351	0	0.81986583	-0.40040553	32.8872499	5.73619382	-17.49038403	20.80497683	0.36311535	-4.75581548	10.28040241	-17.68665101	-7.63933221	0.15005919	0.00261903	6.61984326
4.25	6.32714221	11.35755972	-179.7465319	0	0.82144305	-0.40223037	32.46364744	5.62623562	-17.46065654	21.2398815	0.37070586	-4.31561794	9.81553372	-17.53369132	-7.3976325	0.15739693	0.00274709	5.14735373
4.26	6.17501306	11.09695292	-179.7447978	0	0.8232087	-0.4040341	31.93831549	5.50594887	-17.4036085	21.59042103	0.37682393	-3.82020173	9.34219563	-17.35187423	-7.15887621	0.16738029	0.00292134	3.50660814
4.27	5.98729237	10.81891112	-179.7441712	0	0.8251341	-0.40578648	31.31006689	5.38046923	-17.32643151	21.85254404	0.38139884	-3.29591674	8.85965514	-17.14401817	-6.91069445	0.18149294	0.00316765	1.72595426
4.28	5.74606419	10.53074456	-179.7437637	0	0.82724114	-0.40751945	30.56138544	5.26253284	-17.22339466	22.02406642	0.38439247	-2.72918161	8.35386746	-16.93314217	-6.68807201	0.20237139	0.00353205	-0.21321147
4.29	5.45910096	10.22298281	-179.7436424	0	0.82948847	-0.40921537	29.70922845	5.13196152	-17.10343689	22.11833394	0.38603775	-2.18761482	7.83571514	-16.68821569	-6.45144471	0.23277884	0.00406276	-2.30523762
4.3	5.09729749	9.90384148	-179.7426389	0	0.83191748	-0.41085211	28.71555864	5.00730021	-16.95124084	22.10277151	0.38576614	-1.66284671	7.27855855	-16.43439362	-6.23993853	0.2829544	0.00493849	-4.5244894
4.31	4.71944156	9.54581577	-179.7425452	0	0.83439996	-0.41243102	27.67290734	4.83710299	-16.78114719	22.03901618	0.3846534	-1.17430889	6.75979017	-16.12264197	-6.01205971	0.37120286	0.00647871	-6.8318067
4.32	4.20260733	9.27212006	-179.741482	0	0.83709292	-0.41403009	26.38526654	4.79663737	-16.56954856	21.78550201	0.38022874	-0.71207155	6.16191373	-15.94831857	-5.86596886	0.5531119	0.00965362	-9.17834393
4.33	3.87314526	8.91558562	-179.7412889	0	0.83951531	-0.4156257	25.34090345	4.63400959	-16.37255081	21.61165945	0.37719461	-0.24097911	5.97104622	-15.72322792	-5.7277536	1.03380517	0.0180433	-11.41881705
4.34	3.51874769	8.6597012	-179.7387404	0	0.8418491	-0.41729212	24.24720808	4.59652361	-16.15245163	21.33957923	0.37244592	0.18488217	6.08746197	-15.78909526	-5.81806601	2.10845288	0.03679944	-13.30115451
4.35	3.21457287	8.49671849	-179.7334463	0	0.84399514	-0.41903346	23.19345955	4.67309327	-15.90123744	20.99191509	0.36637803	0.5819394	6.54740866	-16.09121845	-6.01480465	3.67424138	0.06412761	-14.88440754
4.36	2.98413871	8.38778344	-179.727786	0	0.84594273	-0.42078754	22.21746502	4.81407995	-15.60834571	20.59786738	0.3595006	0.88066374	7.27753952	-16.50159653	-6.19444335	5.54279825	0.09674008	-16.07209134
4.37	2.77107745	8.23866541	-179.721036	0	0.84778365	-0.42245576	21.28550667	4.89764601	-15.30933797	20.24678076	0.35337299	1.26741407	8.07876871	-16.80709263	-6.24964018	7.43351499	0.12973931	-17.06430304
